<?xml version="1.0" standalone="no"?>
<!DOCTYPE svg PUBLIC "-//W3C//DTD SVG 20010904//EN"
 "http://www.w3.org/TR/2001/REC-SVG-20010904/DTD/svg10.dtd">
<svg version="1.0" xmlns="http://www.w3.org/2000/svg"
 width="88.000000pt" height="88.000000pt" viewBox="0 0 88.000000 88.000000"
 preserveAspectRatio="xMidYMid meet">
<metadata>
Created by potrace 1.11, written by Peter Selinger 2001-2013
</metadata>
<g transform="translate(0.000000,88.000000) scale(0.100000,-0.100000)"
fill="#000000" stroke="none">
<path d="M285 782 c-17 -15 -41 -40 -54 -57 l-24 -30 7 38 c4 20 3 37 -1 37
-20 0 -134 -87 -138 -105 -8 -35 -13 -79 -14 -117 -1 -31 -6 -40 -31 -53 l-30
-16 2 -202 3 -202 85 -16 c128 -25 337 -20 412 10 106 41 176 109 163 158 -3
13 -1 23 5 23 6 0 18 16 26 35 22 55 4 128 -42 164 -16 13 -21 21 -12 21 21 0
141 -40 152 -51 6 -5 14 -9 20 -9 5 0 -3 14 -20 31 l-29 31 55 -21 c30 -12 55
-21 56 -21 0 0 1 7 1 15 0 8 -6 15 -14 15 -7 0 -13 4 -13 9 0 4 -23 25 -52 45
-29 20 -50 36 -48 36 3 0 33 -9 67 -19 l61 -19 -2 74 c-1 40 -5 76 -7 79 -10
9 -196 11 -289 2 -82 -7 -194 -31 -244 -53 -18 -7 -18 -5 3 30 l23 37 -18 64
c-10 36 -21 65 -24 65 -3 0 -19 -13 -35 -28z"/>
</g>
</svg>
